PathFileType	3	(X/Y/Z)	D:\Jess\PFP\Labelled\PA26\20251029\SRRun01.trc
DataRate	CameraRate	NumFrames	NumMarkers	Units	OrigDataRate	OrigDataStartFrame	OrigNumFrames
250.0	250.0	5	37	mm	250.0	37188	2501
Frame#	Time	C7			T10			CLAV			LSHO			RSHO			LASIS			RASIS			LPSIS			RPSIS			LILCR			RILCR			LGTR			LTHI			LLTHI			LLEP			LMEP			LPSH			LLSH			LDSH			LLMAL			LMMAL			LTOE			L5TH			LHEE			RGTR			RTHI			RLTHI			RLEP			RMEP			RPSH			RLSH			RDSH			RLMAL			RMMAL			RTOE			R5TH			RHEE			
		X1	Y1	Z1	X2	Y2	Z2	X3	Y3	Z3	X4	Y4	Z4	X5	Y5	Z5	X6	Y6	Z6	X7	Y7	Z7	X8	Y8	Z8	X9	Y9	Z9	X10	Y10	Z10	X11	Y11	Z11	X12	Y12	Z12	X13	Y13	Z13	X14	Y14	Z14	X15	Y15	Z15	X16	Y16	Z16	X17	Y17	Z17	X18	Y18	Z18	X19	Y19	Z19	X20	Y20	Z20	X21	Y21	Z21	X22	Y22	Z22	X23	Y23	Z23	X24	Y24	Z24	X25	Y25	Z25	X26	Y26	Z26	X27	Y27	Z27	X28	Y28	Z28	X29	Y29	Z29	X30	Y30	Z30	X31	Y31	Z31	X32	Y32	Z32	X33	Y33	Z33	X34	Y34	Z34	X35	Y35	Z35	X36	Y36	Z36	X37	Y37	Z37	

2189	148.748	1066.760400202235	1463.182138318281	-381.5274963628074	1008.728947986334	1265.380885794654	-402.2390585881329	1191.301741879015	1381.439997496082	-324.4058414478947	1175.072333397384	1446.314946605988	-480.0960068254731	1053.82839266481	1444.216037718295	-223.4614169025121	1139.492782851139	983.858267620675	-469.5792497572531	1122.361627995752	1015.865897438783	-242.2267088735135	970.9368434506185	1081.204279059758	-398.8053708970521	962.2911393387711	1079.168817268993	-351.7547001474223	1113.170383522924	1055.469959777786	-507.9305464112561	1051.573219992689	1086.531990697195	-211.2009743628347	1052.146510541974	891.4921108279797	-532.856627980937	1053.726643671916	738.9546450001347	-434.6318792718521	894.9013725353461	678.7955091864308	-498.8401089854083	823.3207737921766	562.0008853490119	-486.983812862933	nan	nan	nan	837.3047365712342	472.5941482415853	-430.8272260795651	724.3975898205873	383.6860800431524	-486.8403098545768	728.0015379212076	268.7657689138687	-435.5466599521686	647.9775618709249	210.5824553708588	-459.7275217077158	nan	nan	nan	716.1770674389871	79.51736987937976	-433.4078239678474	662.3579310445238	89.07812940808182	-470.2479642184973	581.5043657198222	243.9547149090592	-410.8693641280877	1049.575345319585	971.3865421833733	-177.4535949135608	1198.798377521925	855.5377392999138	-287.0269354166681	1166.347716586036	702.2996675217754	-230.4519895220471	1223.118240192215	564.2484613477986	-249.6832252339997	nan	nan	nan	1251.541029603625	480.2498319367106	-309.0549895600133	1161.199364158031	375.8392105202337	-235.227702186964	1192.668174939252	270.7191470476538	-288.0556797500394	1132.050715685944	172.9408747238735	-260.4148827707367	nan	nan	nan	1265.659636317948	137.836097054452	-295.7751166290766	1227.350303283242	110.8402456170279	-251.0296811451534	1056.781891777893	150.2742178835689	-305.2393989008005	
2190	148.752	1067.345947780576	1464.701150102615	-381.1971077230733	1009.429916649697	1266.927645064344	-402.1332698760447	1191.427538661978	1383.025508293743	-323.4802401347712	1175.718457919865	1447.986792783264	-478.856838471664	1053.916886256838	1445.562781236282	-223.1893106407894	1140.045808423824	984.9055745039675	-469.1159146610717	1123.151337605438	1017.224557152419	-241.9312747954684	971.9663814970203	1083.076036397565	-398.7256858057556	963.2854252825189	1081.042741248395	-351.7311555837911	1114.262383362213	1056.818482239266	-507.3505485197423	1052.026948454543	1087.991290804983	-210.8904674776397	1051.979588814678	893.1815783857555	-532.8374954586557	1052.733972231256	740.1409880737385	-435.6716711064873	892.6330994032503	681.8678402868265	-498.4814481462714	820.2526519273115	565.4807142677266	-486.4170353316018	nan	nan	nan	833.7651600108262	475.3954629430441	-430.5945141132929	719.0770468245812	388.3850530732489	-486.0232805112848	721.2562431360178	273.2659226844706	-434.9829999276297	640.3117496701177	216.4270043113636	-458.8398356347079	nan	nan	nan	705.3574234841392	83.61179150474715	-432.3294102088407	651.7182508504422	94.30584854197514	-469.1600277397558	574.9711286592205	251.6953052146203	-409.8576899043514	1050.768555149964	973.9046733564306	-177.1576784850081	1198.970830965949	856.1756939736348	-287.4837542064739	1165.414842243951	703.3253316025339	-230.1762167201439	1221.654870019229	564.0724021657899	-249.1036428713606	nan	nan	nan	1252.711331903233	480.7652924678522	-308.0632814367814	1166.846389428558	372.8576942427117	-234.2934097636449	1202.173026744189	269.2790551704161	-287.646992173119	1145.92564123601	168.98229956474	-260.0560637172723	nan	nan	nan	1280.603783844494	139.9915782838227	-296.5525590210441	1243.870404536861	111.0802250468833	-251.6330596432414	1071.38743341291	143.3200238320487	-304.3937110001133	
2191	148.756	1067.873889344714	1466.037099486215	-380.8308861596774	1010.083591561592	1268.272030637743	-401.9363289951823	1191.583061898216	1384.433586915576	-322.5805252673219	1176.268314627657	1449.486998477195	-477.6904154057841	1054.044274033477	1446.733798626108	-222.8754201360491	1140.531146446734	985.9102379725459	-468.7198439304939	1123.899131931303	1018.272611649639	-241.6780089200592	972.9047409650458	1084.797462985671	-398.6037815915373	964.2076542052309	1082.739213733339	-351.6611646337892	1115.279272701706	1058.075847647706	-506.7836533438601	1052.524054772481	1089.11688752398	-210.5386443310476	1051.744156366573	894.872580754255	-532.8709475601256	1051.994823328087	741.3022357769873	-436.8201794679447	890.682657748033	684.6878862847323	-498.0958295975686	817.7081612613975	568.5917151176262	-485.783319484431	nan	nan	nan	830.596429298402	477.8254794448335	-430.2880767093736	713.9980953637975	392.9199090846882	-485.1661096657278	714.3978395308261	277.7220411355698	-434.3080860804997	632.4788905417367	222.3659628645793	-457.9891285199541	nan	nan	nan	694.4196005688583	88.0389610623933	-431.1114375349655	641.0324271407449	99.76203346064909	-468.0158608383362	568.1571724329273	259.4386292553239	-409.024132089263	1051.862588406372	976.0114881519538	-176.9005024654104	1198.938051743354	856.194605695748	-287.9269429631616	1164.401302119077	703.9045338261731	-229.7529895037507	1220.121675717808	563.6130604311273	-248.4441332330461	nan	nan	nan	1253.76068843853	481.083492359066	-306.9970108794579	1172.316894185524	369.9995598749356	-233.3556121158058	1211.394300402108	268.0661851766872	-287.1961330126245	1159.49125161421	165.4813070652897	-259.7054130937387	nan	nan	nan	1294.987563520724	142.487004567394	-297.2107892693638	1259.852520772394	111.773522210972	-252.1588906433986	1085.813055537767	136.8913949738042	-303.6201697259983	
2192	148.76	1068.344866237358	1467.191069432595	-380.4250206179246	1010.685609644171	1269.415677825384	-401.6493666033541	1191.769800001679	1385.663792826088	-321.7068907142695	1176.725701839446	1450.815796319063	-476.5993050355532	1054.211135023138	1447.728078609588	-222.5154699016477	1140.952113116526	986.8762168375725	-468.3973694378313	1124.607528556152	1019.01881552071	-241.4746993243624	973.7467530583642	1086.358619126327	-398.4323968789566	965.0527186009116	1084.249274343551	-351.5369979218781	1116.210233900422	1059.248405156332	-506.2277410108296	1053.070893044784	1089.920661033414	-210.1504724493718	1051.445267592713	896.5555291255861	-532.9467357169179	1051.512830574719	742.4258076512883	-438.0532396002154	889.0549239778887	687.2308690607139	-497.6809434592873	815.6767122030875	571.3161421846875	-485.0854588622352	nan	nan	nan	827.7734721187742	479.8770087967135	-429.9094332098714	709.1544323677235	397.2865491538287	-484.2754706482132	707.4416645856538	282.1348143668887	-433.528741436287	624.5020228134513	228.3937955350536	-457.1799494538482	nan	nan	nan	683.3833128088436	92.77640810422159	-429.7606297801372	630.3126229317368	105.4303833781221	-466.8174509411578	561.0915387873476	267.188817122453	-408.3713761908312	1052.859303747356	977.6891319727382	-176.6807010185908	1198.687554863691	855.5924040930819	-288.3615443130283	1163.328496205106	704.0368953059532	-229.1779531742864	1218.550649731749	562.8876409492001	-247.717208804922	nan	nan	nan	1254.696279825407	481.2202695593748	-305.8856291649162	1177.585603629792	367.2823560605423	-232.4250847569214	1220.292156622	267.0785292294165	-286.7055911754822	1172.669909804354	162.4341289376869	-259.3584710380051	nan	nan	nan	1308.753406783845	145.281741699963	-297.7255739388139	1275.218835721985	112.8832723600163	-252.5845561066087	1099.971383584358	130.9946465678372	-302.9213649254129	
2193	148.764	1068.760949550841	1468.165048876313	-379.975625094074	1011.231190505752	1270.361932529606	-401.2740060061307	1191.988246571484	1386.715207343306	-320.8597667417721	1177.095539525747	1451.973306633627	-475.5842248596066	1054.418441465826	1448.545395399731	-222.105289893237	1141.31268340922	987.8054988837639	-468.1528812634521	1125.279730776294	1019.475705428644	-241.3273665245481	974.4884870295829	1087.749287741559	-398.2040775490946	965.8165327385186	1085.563903857319	-351.3508519800957	1117.043203274752	1060.341995734641	-505.6816103460417	1053.671080735354	1090.417442394767	-209.7318264867436	1051.090402340989	898.2173136588422	-533.0535190315363	1051.287290417403	743.4971296413908	-439.3453519279764	887.7518009896813	689.4740141514883	-497.2359439424511	814.1422527098941	573.6416653877069	-484.3283330551225	nan	nan	nan	825.2705359415583	481.5480163197988	-429.4626806031205	704.5412251955345	401.4845582163597	-483.3595993340311	700.4115274311845	286.5054002261485	-432.6561505111345	616.4134095879323	234.5046361382705	-456.4162592427242	nan	nan	nan	672.2713747423243	97.79868161934263	-428.2875357440598	619.5736954877377	111.2948592809206	-465.5685384092555	553.818948761535	274.9525537657287	-407.8974178185833	1053.762186812613	978.9249496452413	-176.4965530814912	1198.214050967761	854.3791299980805	-288.7907802980588	1162.216725310466	703.728882894635	-228.4516303524563	1216.974795929707	561.9168809665061	-246.9366561664148	nan	nan	nan	1255.524476282653	481.1926225780813	-304.7594675552332	1182.628298695775	364.7207282729275	-231.5116456004242	1228.826771992254	266.308852624013	-286.1785342456758	1185.383656403494	159.8287259950043	-259.010276473607	nan	nan	nan	1321.845973462445	148.3285170477988	-298.0754716676959	1289.893442220525	114.3645030567314	-252.8891081450194	1113.772692046532	125.627655368445	-302.2974722934985	
